<?xml version="1.0" standalone="no"?>
<!DOCTYPE svg PUBLIC "-//W3C//DTD SVG 20010904//EN"
 "http://www.w3.org/TR/2001/REC-SVG-20010904/DTD/svg10.dtd">
<svg version="1.0" xmlns="http://www.w3.org/2000/svg"
 width="391.000000pt" height="248.000000pt" viewBox="0 0 391.000000 248.000000"
 preserveAspectRatio="xMidYMid meet">

<g transform="translate(0.000000,248.000000) scale(0.100000,-0.100000)"
fill="#000000" stroke="none">
<path d="M0 2390 c0 -20 7 -20 1955 -20 1948 0 1955 0 1955 20 0 20 -7 20
-1955 20 -1948 0 -1955 0 -1955 -20z"/>
<path d="M0 2280 c0 -20 7 -20 1955 -20 1948 0 1955 0 1955 20 0 20 -7 20
-1955 20 -1948 0 -1955 0 -1955 -20z"/>
<path d="M0 2170 c0 -20 7 -20 1955 -20 1948 0 1955 0 1955 20 0 20 -7 20
-1955 20 -1948 0 -1955 0 -1955 -20z"/>
<path d="M0 1240 l0 -770 1955 0 1955 0 0 770 0 770 -1955 0 -1955 0 0 -770z
m1000 475 l0 -105 105 0 105 0 0 -425 0 -425 -105 0 -105 0 0 105 0 105 -320
0 -320 0 0 -105 0 -105 -105 0 -105 0 0 425 0 425 105 0 105 0 2 -212 3 -213
318 -3 317 -2 0 215 0 215 -315 0 -315 0 0 105 0 105 315 0 315 0 0 -105z
m1280 0 l0 -105 105 0 105 0 0 -105 0 -105 -105 0 -105 0 0 -105 0 -105 -320
0 -320 0 0 -110 0 -110 320 0 320 0 0 105 0 105 105 0 105 0 0 -105 0 -105
-105 0 -105 0 0 -105 0 -105 -425 0 -425 0 0 530 0 530 425 0 425 0 0 -105z
m1490 0 l0 -105 -215 0 -215 0 0 -425 0 -425 -105 0 -105 0 0 425 0 425 -210
0 -210 0 0 105 0 105 530 0 530 0 0 -105z"/>
<path d="M1640 1505 l0 -105 320 0 320 0 0 105 0 105 -320 0 -320 0 0 -105z"/>
<path d="M0 310 c0 -20 7 -20 1955 -20 1948 0 1955 0 1955 20 0 20 -7 20
-1955 20 -1948 0 -1955 0 -1955 -20z"/>
<path d="M0 200 c0 -20 7 -20 1955 -20 1948 0 1955 0 1955 20 0 20 -7 20
-1955 20 -1948 0 -1955 0 -1955 -20z"/>
<path d="M0 90 c0 -20 7 -20 1955 -20 1948 0 1955 0 1955 20 0 20 -7 20 -1955
20 -1948 0 -1955 0 -1955 -20z"/>
</g>
</svg>
